<svg xmlns="http://www.w3.org/2000/svg" fill="none" viewBox="0 0 200 200" id="Cloudinary-Icon--Streamline-Svg-Logos" height="200" width="200">
  <desc>
    Cloudinary Icon Streamline Icon: https://streamlinehq.com
  </desc>
  <path fill="#3448c5" d="M59.501875000000005 93.44229166666668c0.14333333333333334 0 0.280625 0.0575 0.38125000000000003 0.15958333333333335l18.022708333333334 18.038958333333333c0.14875000000000002 0.15270833333333336 0.1925 0.3793750000000001 0.11145833333333334 0.5764583333333334 -0.08104166666666666 0.1972916666666667 -0.27125000000000005 0.3277083333333333 -0.48458333333333337 0.33187500000000003h-4.607083333333334c-0.29833333333333334 0 -0.5427083333333333 0.23708333333333334 -0.5514583333333334 0.5354166666666668V153.63958333333335c0.006458333333333333 2.5670833333333336 1.026875 5.0275 2.8389583333333337 6.845833333333334l2.6927083333333335 2.6929166666666666c0.14875000000000002 0.15270833333333336 0.1925 0.3793750000000001 0.11145833333333334 0.5764583333333334 -0.08104166666666666 0.1972916666666667 -0.27125000000000005 0.3277083333333333 -0.48458333333333337 0.33187500000000003H56.28187500000001c-5.375416666666667 0 -9.733125000000001 -4.357708333333333 -9.733125000000001 -9.733125000000001V113.08458333333334c0 -0.295625 -0.23979166666666668 -0.5354166666666668 -0.5354166666666668 -0.5354166666666668h-4.542083333333334c-0.21625000000000003 0.002291666666666667 -0.41250000000000003 -0.12562500000000001 -0.49750000000000005 -0.324375 -0.08520833333333333 -0.19875 -0.0425 -0.4289583333333334 0.10812500000000001 -0.5839583333333334l18.038958333333333 -18.038958333333333c0.100625 -0.10208333333333335 0.23791666666666667 -0.15958333333333335 0.3810416666666667 -0.15958333333333335Zm39.857708333333335 10.447083333333333c0.14333333333333334 0 0.280625 0.0575 0.38125000000000003 0.15958333333333335l18.038958333333333 17.973958333333332c0.150625 0.155 0.19333333333333333 0.3854166666666667 0.10812500000000001 0.5839583333333334 -0.08520833333333333 0.19875 -0.28145833333333337 0.32666666666666666 -0.49750000000000005 0.324375H112.78333333333335c-0.29833333333333334 0.008958333333333334 -0.5354166666666668 0.25333333333333335 -0.5354166666666668 0.5516666666666666V153.63958333333335c0.002291666666666667 2.564791666666667 1.0166666666666666 5.025 2.8227083333333334 6.845833333333334l2.709166666666667 2.6929166666666666c0.150625 0.1547916666666667 0.19333333333333333 0.3852083333333334 0.10812500000000001 0.5839583333333334 -0.08520833333333333 0.19854166666666667 -0.28145833333333337 0.32666666666666666 -0.49750000000000005 0.324375H96.188125c-5.375416666666667 0 -9.733125000000001 -4.357708333333333 -9.733125000000001 -9.733125000000001V123.51541666666667c0 -0.2985416666666667 -0.23708333333333334 -0.5429166666666667 -0.5354166666666668 -0.5516666666666666h-4.590833333333333c-0.213125 -0.0041666666666666675 -0.40354166666666674 -0.13458333333333336 -0.48458333333333337 -0.33187500000000003 -0.08083333333333334 -0.19708333333333336 -0.037083333333333336 -0.42375 0.11145833333333334 -0.5764583333333334l18.022708333333334 -18.006458333333335c0.100625 -0.10208333333333335 0.23791666666666667 -0.15958333333333335 0.38125000000000003 -0.15958333333333335Zm39.865625 10.334791666666668c0.14062500000000003 0 0.2754166666666667 0.05708333333333334 0.37312500000000004 0.158125l18.038958333333333 18.022708333333334c0.16020833333333334 0.15125 0.21145833333333336 0.3852083333333334 0.12916666666666668 0.5895833333333333 -0.08250000000000002 0.20458333333333334 -0.28187500000000004 0.3375 -0.5022916666666667 0.335h-4.623333333333333c-0.295625 0 -0.5352083333333334 0.23979166666666668 -0.5352083333333334 0.5354166666666668v19.774583333333332c0.006458333333333333 2.5670833333333336 1.026875 5.0275 2.83875 6.845833333333334l2.6929166666666666 2.6929166666666666c0.14875000000000002 0.15270833333333336 0.1925 0.3793750000000001 0.11145833333333334 0.5764583333333334 -0.08104166666666666 0.1972916666666667 -0.27145833333333336 0.3277083333333333 -0.48458333333333337 0.33187500000000003H135.99708333333334c-5.375416666666667 0 -9.733333333333334 -4.357708333333333 -9.733333333333334 -9.733125000000001v-20.48854166666667c0 -0.295625 -0.23958333333333337 -0.5354166666666668 -0.5352083333333334 -0.5354166666666668h-4.542291666666666c-0.22020833333333337 0.0025 -0.41958333333333336 -0.13041666666666668 -0.5020833333333333 -0.335 -0.08250000000000002 -0.20437500000000003 -0.03125 -0.43833333333333335 0.12916666666666668 -0.5895833333333333l18.03875 -18.022708333333334c0.09791666666666668 -0.10104166666666668 0.23250000000000004 -0.158125 0.37312500000000004 -0.158125ZM98.99458333333334 35.914166666666674c28.335 0.20625000000000002 53.32625 18.606041666666666 61.935833333333335 45.602291666666666C181.97354166666668 84.26270833333334 197.76291666666665 102.11583333333334 197.91666666666669 123.33687500000002c0 17.514583333333334 -10.953541666666666 32.068958333333335 -28.638958333333335 38.12833333333334l-0.6581250000000001 0.22062500000000002 -0.8110416666666667 0.25958333333333333v-13.075000000000001c11.241875 -4.736875 17.84416666666667 -14.097083333333336 17.84416666666667 -25.533541666666668 -0.0575 -16.138125000000002 -12.838125000000002 -29.315625000000004 -28.900208333333335 -29.930000000000003l-0.5427083333333333 -0.015833333333333335h-4.866666666666667l-1.1679166666666667 -4.639583333333333c-5.732291666666667 -23.661458333333336 -26.835208333333338 -40.38333333333334 -51.180625000000006 -40.55520833333333 -20.031875 -0.09604166666666668 -38.325208333333336 11.286666666666667 -47.10395833333334 29.24541666666667l-1.8056250000000003 3.717916666666667 -3.4064583333333336 0.35687500000000005c-15.385625000000003 1.6458333333333335 -28.018854166666667 12.899166666666668 -31.425583333333336 27.992708333333336 -3.3580416666666673 14.878125 2.9823125000000004 30.237083333333334 15.794125000000001 38.42583333333334l0.5610416666666667 0.3514583333333333v13.78875h-0.08104166666666666l-1.2166666666666668 -0.5516666666666666C11.067770833333334 152.6772916666667 -0.20367833333333332 132.3622916666667 2.474395833333334 111.35375000000002 5.152479166666668 90.34520833333333 21.160000000000004 73.50750000000001 42.006458333333335 69.77166666666668c11.262708333333334 -20.96604166666667 33.18895833333333 -33.991875 56.988125000000004 -33.8575Z" stroke-width="2.0833"></path>
</svg>